<svg xmlns="http://www.w3.org/2000/svg" version="1.1" xmlns:xlink="http://www.w3.org/1999/xlink" xmlns:svgjs="http://svgjs.com/svgjs" width="1440" height="330" preserveAspectRatio="none" viewBox="0 0 1440 330">
    <g mask="url(&quot;#SvgjsMask1639&quot;)" fill="none">
        <g>
            <path d="M715 11L693 33L693 55M715 -11L715 11L715 33L715 55" stroke="url(#SvgjsLinearGradient1640)" stroke-width="3.67"></path>
            <path d="M711.33 55 a3.67 3.67 0 1 0 7.34 0 a3.67 3.67 0 1 0 -7.34 0zM689.33 55 a3.67 3.67 0 1 0 7.34 0 a3.67 3.67 0 1 0 -7.34 0z" fill="url(#SvgjsLinearGradient1640)"></path>
            <path d="M737 -11L737 11L737 33" stroke="url(#SvgjsLinearGradient1640)" stroke-width="3.67"></path>
            <path d="M733.33 33 a3.67 3.67 0 1 0 7.34 0 a3.67 3.67 0 1 0 -7.34 0z" fill="url(#SvgjsLinearGradient1640)"></path>
            <path d="M759 33L781 55M759 11L781 33L803 55M759 -11L759 11L759 33L759 55" stroke="url(#SvgjsLinearGradient1640)" stroke-width="3.67"></path>
            <path d="M755.33 55 a3.67 3.67 0 1 0 7.34 0 a3.67 3.67 0 1 0 -7.34 0zM777.33 55 a3.67 3.67 0 1 0 7.34 0 a3.67 3.67 0 1 0 -7.34 0zM799.33 55 a3.67 3.67 0 1 0 7.34 0 a3.67 3.67 0 1 0 -7.34 0z" fill="url(#SvgjsLinearGradient1640)"></path>
            <path d="M627 11L649 33M627 33L605 55M627 -11L627 11L627 33L627 55" stroke="url(#SvgjsLinearGradient1640)" stroke-width="3.67"></path>
            <path d="M623.33 55 a3.67 3.67 0 1 0 7.34 0 a3.67 3.67 0 1 0 -7.34 0zM645.33 33 a3.67 3.67 0 1 0 7.34 0 a3.67 3.67 0 1 0 -7.34 0zM601.33 55 a3.67 3.67 0 1 0 7.34 0 a3.67 3.67 0 1 0 -7.34 0z" fill="url(#SvgjsLinearGradient1640)"></path>
            <path d="M825 11L803 33M825 -11L825 11L825 33" stroke="url(#SvgjsLinearGradient1640)" stroke-width="3.67"></path>
            <path d="M821.33 33 a3.67 3.67 0 1 0 7.34 0 a3.67 3.67 0 1 0 -7.34 0zM799.33 33 a3.67 3.67 0 1 0 7.34 0 a3.67 3.67 0 1 0 -7.34 0z" fill="url(#SvgjsLinearGradient1640)"></path>
            <path d="M847 33L869 55M847 -11L847 11L847 33L847 55" stroke="url(#SvgjsLinearGradient1640)" stroke-width="3.67"></path>
            <path d="M843.33 55 a3.67 3.67 0 1 0 7.34 0 a3.67 3.67 0 1 0 -7.34 0zM865.33 55 a3.67 3.67 0 1 0 7.34 0 a3.67 3.67 0 1 0 -7.34 0z" fill="url(#SvgjsLinearGradient1640)"></path>
            <path d="M583 11L605 33M583 33L561 55M583 -11L583 11L583 33L583 55" stroke="url(#SvgjsLinearGradient1640)" stroke-width="3.67"></path>
            <path d="M579.33 55 a3.67 3.67 0 1 0 7.34 0 a3.67 3.67 0 1 0 -7.34 0zM601.33 33 a3.67 3.67 0 1 0 7.34 0 a3.67 3.67 0 1 0 -7.34 0zM557.33 55 a3.67 3.67 0 1 0 7.34 0 a3.67 3.67 0 1 0 -7.34 0z" fill="url(#SvgjsLinearGradient1640)"></path>
            <path d="M869 -11L869 11" stroke="url(#SvgjsLinearGradient1640)" stroke-width="3.67"></path>
            <path d="M865.33 11 a3.67 3.67 0 1 0 7.34 0 a3.67 3.67 0 1 0 -7.34 0z" fill="url(#SvgjsLinearGradient1640)"></path>
            <path d="M561 -11L561 11" stroke="url(#SvgjsLinearGradient1640)" stroke-width="3.67"></path>
            <path d="M557.33 11 a3.67 3.67 0 1 0 7.34 0 a3.67 3.67 0 1 0 -7.34 0z" fill="url(#SvgjsLinearGradient1640)"></path>
            <path d="M539 -11L539 11L539 33" stroke="url(#SvgjsLinearGradient1640)" stroke-width="3.67"></path>
            <path d="M535.33 33 a3.67 3.67 0 1 0 7.34 0 a3.67 3.67 0 1 0 -7.34 0z" fill="url(#SvgjsLinearGradient1640)"></path>
            <path d="M913 33L935 55M913 11L891 33L891 55M913 -11L913 11L913 33L913 55" stroke="url(#SvgjsLinearGradient1640)" stroke-width="3.67"></path>
            <path d="M909.33 55 a3.67 3.67 0 1 0 7.34 0 a3.67 3.67 0 1 0 -7.34 0zM931.33 55 a3.67 3.67 0 1 0 7.34 0 a3.67 3.67 0 1 0 -7.34 0zM887.33 55 a3.67 3.67 0 1 0 7.34 0 a3.67 3.67 0 1 0 -7.34 0z" fill="url(#SvgjsLinearGradient1640)"></path>
            <path d="M935 -11L935 11" stroke="url(#SvgjsLinearGradient1640)" stroke-width="3.67"></path>
            <path d="M931.33 11 a3.67 3.67 0 1 0 7.34 0 a3.67 3.67 0 1 0 -7.34 0z" fill="url(#SvgjsLinearGradient1640)"></path>
            <path d="M495 -11L517 11L517 33L517 55" stroke="url(#SvgjsLinearGradient1640)" stroke-width="3.67"></path>
            <path d="M513.33 55 a3.67 3.67 0 1 0 7.34 0 a3.67 3.67 0 1 0 -7.34 0z" fill="url(#SvgjsLinearGradient1640)"></path>
            <path d="M957 -11L957 11L957 33" stroke="url(#SvgjsLinearGradient1640)" stroke-width="3.67"></path>
            <path d="M953.33 33 a3.67 3.67 0 1 0 7.34 0 a3.67 3.67 0 1 0 -7.34 0z" fill="url(#SvgjsLinearGradient1640)"></path>
            <path d="M979 -11L979 11" stroke="url(#SvgjsLinearGradient1640)" stroke-width="3.67"></path>
            <path d="M975.33 11 a3.67 3.67 0 1 0 7.34 0 a3.67 3.67 0 1 0 -7.34 0z" fill="url(#SvgjsLinearGradient1640)"></path>
            <path d="M451 11L473 33L495 55M451 -11L451 11L451 33" stroke="url(#SvgjsLinearGradient1640)" stroke-width="3.67"></path>
            <path d="M447.33 33 a3.67 3.67 0 1 0 7.34 0 a3.67 3.67 0 1 0 -7.34 0zM491.33 55 a3.67 3.67 0 1 0 7.34 0 a3.67 3.67 0 1 0 -7.34 0z" fill="url(#SvgjsLinearGradient1640)"></path>
            <path d="M1001 -11L1001 11L1001 33" stroke="url(#SvgjsLinearGradient1640)" stroke-width="3.67"></path>
            <path d="M997.33 33 a3.67 3.67 0 1 0 7.34 0 a3.67 3.67 0 1 0 -7.34 0z" fill="url(#SvgjsLinearGradient1640)"></path>
            <path d="M1023 -11L1023 11L1023 33L1001 55" stroke="url(#SvgjsLinearGradient1640)" stroke-width="3.67"></path>
            <path d="M997.33 55 a3.67 3.67 0 1 0 7.34 0 a3.67 3.67 0 1 0 -7.34 0z" fill="url(#SvgjsLinearGradient1640)"></path>
            <path d="M407 -11L429 11" stroke="url(#SvgjsLinearGradient1640)" stroke-width="3.67"></path>
            <path d="M425.33 11 a3.67 3.67 0 1 0 7.34 0 a3.67 3.67 0 1 0 -7.34 0z" fill="url(#SvgjsLinearGradient1640)"></path>
            <path d="M1045 -11L1045 11L1045 33" stroke="url(#SvgjsLinearGradient1640)" stroke-width="3.67"></path>
            <path d="M1041.33 33 a3.67 3.67 0 1 0 7.34 0 a3.67 3.67 0 1 0 -7.34 0z" fill="url(#SvgjsLinearGradient1640)"></path>
            <path d="M385 -11L385 11" stroke="url(#SvgjsLinearGradient1640)" stroke-width="3.67"></path>
            <path d="M381.33 11 a3.67 3.67 0 1 0 7.34 0 a3.67 3.67 0 1 0 -7.34 0z" fill="url(#SvgjsLinearGradient1640)"></path>
            <path d="M1067 -11L1067 11" stroke="url(#SvgjsLinearGradient1640)" stroke-width="3.67"></path>
            <path d="M1063.33 11 a3.67 3.67 0 1 0 7.34 0 a3.67 3.67 0 1 0 -7.34 0z" fill="url(#SvgjsLinearGradient1640)"></path>
            <path d="M363 11L341 33L341 55M363 -11L363 11L363 33" stroke="url(#SvgjsLinearGradient1640)" stroke-width="3.67"></path>
            <path d="M359.33 33 a3.67 3.67 0 1 0 7.34 0 a3.67 3.67 0 1 0 -7.34 0zM337.33 55 a3.67 3.67 0 1 0 7.34 0 a3.67 3.67 0 1 0 -7.34 0z" fill="url(#SvgjsLinearGradient1640)"></path>
        </g>
    </g>
    <defs>
        <mask id="SvgjsMask1639">
            <rect width="1440" height="330" fill="#ffffff"></rect>
        </mask>
        <linearGradient x1="1102.32" y1="426.82464" x2="337.68" y2="-337.72463999999997" gradientUnits="userSpaceOnUse" id="SvgjsLinearGradient1640">
            <stop stop-color="#3a7cc3" offset="0"></stop>
            <stop stop-color="rgba(17, 221, 61, 1)" offset="1"></stop>
        </linearGradient>
    </defs>
</svg>