<svg xmlns="http://www.w3.org/2000/svg" version="1.1" xmlns:xlink="http://www.w3.org/1999/xlink" xmlns:svgjs="http://svgjs.com/svgjs" width="1440" height="460" preserveAspectRatio="none" viewBox="0 0 1440 460">
    <g mask="url(&quot;#SvgjsMask1073&quot;)" fill="none">
        <rect width="1440" height="460" x="0" y="0" fill="rgba(24, 106, 59, 1)"></rect>
        <path d="M0,663.268C121.462,682.109,235.894,590.593,325.439,506.393C406.194,430.458,435.912,320.636,474.782,216.826C510.952,120.226,545.834,24.873,544.354,-78.266C542.72,-192.143,536.805,-314.579,465.877,-403.685C394.062,-493.906,277.269,-538.072,163.479,-556.759C57.4,-574.18,-42.066,-521.966,-148.141,-504.522C-272.55,-484.063,-418.238,-527.404,-513.967,-445.355C-610.433,-362.674,-633.643,-217.737,-630.94,-90.715C-628.444,26.59,-568.276,133.018,-499.633,228.175C-440.21,310.551,-343.035,347.879,-266.436,414.583C-172.924,496.016,-122.534,644.261,0,663.268" fill="#13552f"></path>
        <path d="M1440 1107.463C1567.984 1118.087 1702.289 1105.663 1810.841 1037.04 1919.742 968.196 1978.174 847.367 2034.629 731.558 2092.378 613.094 2152.1059999999998 490.515 2141.292 359.169 2130.16 223.965 2083.466 77.49799999999999 1974.161-2.8530000000000086 1867.848-81.00400000000002 1718.2930000000001-21.35300000000001 1588.85-46.93599999999998 1475.362-69.36500000000001 1376.179-166.47799999999995 1262.813-143.442 1147.662-120.043 1080.099-6.500999999999976 994.373 73.86200000000002 897.805 164.389 763.084 229.965 728.26 357.66700000000003 692.604 488.42 740.167 631.664 810.703 747.39 877.212 856.509 995.803 915.127 1106.721 978.592 1212.24 1038.9679999999998 1318.846 1097.406 1440 1107.463" fill="#1d7f47"></path>
    </g>
    <defs>
        <mask id="SvgjsMask1073">
            <rect width="1440" height="460" fill="#ffffff"></rect>
        </mask>
    </defs>
</svg>